<svg width="1200" height="825" viewBox="0 0 1200 825" fill="none" xmlns="http://www.w3.org/2000/svg" role="img" aria-labelledby="title desc">
  <title id="title">Consulting workflow preview</title>
  <desc id="desc">Abstract consulting diagram with roadmap cards, arrows, and milestone blocks.</desc>
  <rect width="1200" height="825" rx="40" fill="#F7FAFC"/>
  <rect x="72" y="72" width="1056" height="681" rx="30" fill="#FFFFFF"/>
  <rect x="108" y="108" width="324" height="104" rx="28" fill="#EFF6FF"/>
  <rect x="144" y="138" width="132" height="16" rx="8" fill="#94A3B8"/>
  <rect x="144" y="168" width="226" height="18" rx="9" fill="#CBD5E1"/>
  <rect x="454" y="108" width="324" height="104" rx="28" fill="#F8FAFC"/>
  <rect x="490" y="138" width="122" height="16" rx="8" fill="#94A3B8"/>
  <rect x="490" y="168" width="196" height="18" rx="9" fill="#CBD5E1"/>
  <rect x="800" y="108" width="292" height="104" rx="28" fill="#F5F3FF"/>
  <rect x="836" y="138" width="116" height="16" rx="8" fill="#94A3B8"/>
  <rect x="836" y="168" width="168" height="18" rx="9" fill="#CBD5E1"/>
  <path d="M432 160H454" stroke="#2563EB" stroke-width="8" stroke-linecap="round"/>
  <path d="M778 160H800" stroke="#7C3AED" stroke-width="8" stroke-linecap="round"/>
  <path d="M150 276H1042" stroke="#E2E8F0" stroke-width="6" stroke-linecap="round" stroke-dasharray="10 14"/>
  <rect x="108" y="322" width="214" height="214" rx="28" fill="#F8FAFC"/>
  <rect x="346" y="322" width="214" height="214" rx="28" fill="#F8FAFC"/>
  <rect x="584" y="322" width="214" height="214" rx="28" fill="#F8FAFC"/>
  <rect x="822" y="322" width="270" height="214" rx="28" fill="#F8FAFC"/>
  <rect x="140" y="356" width="88" height="88" rx="24" fill="#DBEAFE"/>
  <rect x="378" y="356" width="88" height="88" rx="24" fill="#EDE9FE"/>
  <rect x="616" y="356" width="88" height="88" rx="24" fill="#DCFCE7"/>
  <rect x="858" y="356" width="132" height="88" rx="24" fill="#FEF3C7"/>
  <rect x="140" y="470" width="146" height="18" rx="9" fill="#94A3B8"/>
  <rect x="140" y="504" width="182" height="18" rx="9" fill="#CBD5E1"/>
  <rect x="378" y="470" width="146" height="18" rx="9" fill="#94A3B8"/>
  <rect x="378" y="504" width="182" height="18" rx="9" fill="#CBD5E1"/>
  <rect x="616" y="470" width="146" height="18" rx="9" fill="#94A3B8"/>
  <rect x="616" y="504" width="182" height="18" rx="9" fill="#CBD5E1"/>
  <rect x="858" y="470" width="174" height="18" rx="9" fill="#94A3B8"/>
  <rect x="858" y="504" width="118" height="18" rx="9" fill="#CBD5E1"/>
  <rect x="108" y="576" width="998" height="110" rx="28" fill="#F8FAFC"/>
  <rect x="146" y="612" width="168" height="16" rx="8" fill="#CBD5E1"/>
  <rect x="146" y="642" width="284" height="18" rx="9" fill="#E2E8F0"/>
  <rect x="888" y="604" width="180" height="38" rx="19" fill="#2563EB"/>
</svg>
