<svg width="1200" height="825" viewBox="0 0 1200 825" fill="none" xmlns="http://www.w3.org/2000/svg" role="img" aria-labelledby="title desc">
  <title id="title">Mobile interface illustration</title>
  <desc id="desc">Abstract mobile app screens with cards and charts.</desc>
  <rect width="1200" height="825" rx="40" fill="#F5F7FF"/>
  <rect x="72" y="72" width="1056" height="681" rx="30" fill="#FFFFFF"/>
  <rect x="150" y="118" width="900" height="86" rx="28" fill="#EEF2FF"/>
  <rect x="182" y="148" width="142" height="16" rx="8" fill="#94A3B8"/>
  <rect x="182" y="176" width="218" height="18" rx="9" fill="#CBD5E1"/>
  <rect x="438" y="104" width="324" height="582" rx="46" fill="#0F172A"/>
  <rect x="470" y="138" width="260" height="514" rx="34" fill="#FFFFFF"/>
  <rect x="500" y="170" width="116" height="14" rx="7" fill="#CBD5E1"/>
  <rect x="500" y="198" width="180" height="18" rx="9" fill="#94A3B8"/>
  <rect x="500" y="238" width="204" height="132" rx="24" fill="#DBEAFE"/>
  <rect x="500" y="388" width="204" height="76" rx="22" fill="#F8FAFC"/>
  <rect x="500" y="480" width="204" height="76" rx="22" fill="#F8FAFC"/>
  <rect x="500" y="572" width="126" height="24" rx="12" fill="#2563EB"/>
  <rect x="790" y="234" width="180" height="154" rx="30" fill="#F8FAFC"/>
  <rect x="790" y="410" width="180" height="154" rx="30" fill="#F8FAFC"/>
  <rect x="820" y="274" width="118" height="18" rx="9" fill="#94A3B8"/>
  <rect x="820" y="308" width="92" height="18" rx="9" fill="#CBD5E1"/>
  <rect x="820" y="450" width="118" height="18" rx="9" fill="#94A3B8"/>
  <rect x="820" y="484" width="92" height="18" rx="9" fill="#CBD5E1"/>
</svg>
